<svg id="Layer_1" height="512" viewBox="0 0 128 128" width="512" xmlns="http://www.w3.org/2000/svg" xmlns:xlink="http://www.w3.org/1999/xlink" data-name="Layer 1"><linearGradient id="linear-gradient" gradientUnits="userSpaceOnUse" x1="108.005" x2="19.995" y1="115.691" y2="27.682"><stop offset="0" stop-color="#6f79e0"/><stop offset="1" stop-color="#28ebcf"/></linearGradient><path d="m114.956 108.015a1.75 1.75 0 0 1 -1.75 1.75h-15.276l-45.9 5.18a1.61 1.61 0 0 1 -.2.011 1.75 1.75 0 0 1 -1.75-1.75v-91.471h-18.163v53.515a1.75 1.75 0 0 1 -3.5 0v-55.265a1.75 1.75 0 0 1 1.75-1.75h19.916v-3.441a1.75 1.75 0 0 1 1.946-1.739l10.832 1.222a1.75 1.75 0 1 1 -.392 3.478l-8.886-1v94.5l42.5-4.8v-84.9l-17.524-1.984a1.75 1.75 0 0 1 .392-3.478l19.078 2.154a1.749 1.749 0 0 1 1.554 1.738v86.28h13.623a1.749 1.749 0 0 1 1.75 1.75zm-70.456-1.75h-4.584v-76.53h4.084a1.75 1.75 0 0 0 0-3.5h-5.834a1.75 1.75 0 0 0 -1.75 1.75v78.28h-4.5v-18.765a1.75 1.75 0 0 0 -3.5 0v18.765h-13.622a1.75 1.75 0 1 0 0 3.5h29.706a1.75 1.75 0 0 0 0-3.5zm-14.333-23.182a1.75 1.75 0 0 0 1.75-1.75v-.375a1.75 1.75 0 0 0 -3.5 0v.375a1.75 1.75 0 0 0 1.75 1.75zm39.612-64.5 1.153.13a1.644 1.644 0 0 0 .2.012 1.75 1.75 0 0 0 .194-3.489l-1.152-.13a1.75 1.75 0 1 0 -.393 3.477zm-8.654 40.209a5.208 5.208 0 1 1 -5.208 5.208 5.214 5.214 0 0 1 5.208-5.208zm0 3.5a1.708 1.708 0 1 0 1.708 1.708 1.71 1.71 0 0 0 -1.708-1.708z" fill="url(#linear-gradient)"/></svg>